# xmcd
#
# Track frame offsets: 
#        150
#        13102
#        24294
#        36694
#        50895
#        63685
#        76391
#        88302
#        102263
#        112096
#        124424
#        136602
#        150743
#        162348
#        176358
#        189319
#        202719
#        216471
#        230191
#        244618
#        257994
#        272538
#        286754
#        298056
#        309843
#
# Disc length: 4300 seconds
#
# Revision: 1
# Processed by: cddbd v1.5.2PL0 Copyright (c) Steve Scherf et al.
# Submitted via: ExactAudioCopy v1.0b3
#
DISCID=7210ca19
DTITLE=Tubb, Ernest - The Texas Troubadour [Disc 2]
DYEAR=2003
DGENRE=Honky Tonk
TTITLE0=Slippin' Around
TTITLE1=My Tennessee Baby
TTITLE2=My Filipino Rose
TTITLE3=Warm Red Wine
TTITLE4=Blue Christmas
TTITLE5=White Christmas
TTITLE6=Tennessee Border #2
TTITLE7=Letters Have No Arms
TTITLE8=Don't Be Ashamed Of Your Age
TTITLE9=I'll Take A Back Seat For You
TTITLE10=I Love You Because
TTITLE11=Unfaithful One
TTITLE12=Throw Your Love My Way
TTITLE13=Give Me A Little Old Fashioned Love
TTITLE14=Hillbilly Fever #2
TTITLE15=(Remember Me) I'm The One Who Loves You
TTITLE16=Goodnight Irene
TTITLE17=Don't Stay Too Long
TTITLE18=Hey La La
TTITLE19=Driftwood On The River
TTITLE20=The Strange Little Girl
TTITLE21=Missing In Action
TTITLE22=Somebody's Stolen My Honey
TTITLE23=Fortunes In Memories
TTITLE24=Too Old To Cut The Mustard
EXTD=
EXTT0=
EXTT1=
EXTT2=
EXTT3=
EXTT4=
EXTT5=
EXTT6=
EXTT7=
EXTT8=
EXTT9=
EXTT10=
EXTT11=
EXTT12=
EXTT13=
EXTT14=
EXTT15=
EXTT16=
EXTT17=
EXTT18=
EXTT19=
EXTT20=
EXTT21=
EXTT22=
EXTT23=
EXTT24=
PLAYORDER=
